<?xml version="1.0" encoding="UTF-8" standalone="no"?>
<svg
   xmlns:dc="http://purl.org/dc/elements/1.1/"
   xmlns:cc="http://creativecommons.org/ns#"
   xmlns:rdf="http://www.w3.org/1999/02/22-rdf-syntax-ns#"
   xmlns:svg="http://www.w3.org/2000/svg"
   xmlns="http://www.w3.org/2000/svg"
   xmlns:sodipodi="http://sodipodi.sourceforge.net/DTD/sodipodi-0.dtd"
   xmlns:inkscape="http://www.inkscape.org/namespaces/inkscape"
   sodipodi:docname="logo.svg"
   inkscape:version="1.0 (4035a4fb49, 2020-05-01)"
   id="svg8"
   version="1.1"
   viewBox="0 0 210 297"
   height="297mm"
   width="210mm">
  <defs
     id="defs2" />
  <sodipodi:namedview
     inkscape:window-maximized="1"
     inkscape:window-y="-9"
     inkscape:window-x="-9"
     inkscape:window-height="1051"
     inkscape:window-width="1920"
     showgrid="false"
     inkscape:document-rotation="0"
     inkscape:current-layer="g1062"
     inkscape:document-units="mm"
     inkscape:cy="218.27307"
     inkscape:cx="452.09178"
     inkscape:zoom="2"
     inkscape:pageshadow="2"
     inkscape:pageopacity="0.0"
     borderopacity="1.0"
     bordercolor="#666666"
     pagecolor="#ffffff"
     id="base" />
  <metadata
     id="metadata5">
    <rdf:RDF>
      <cc:Work
         rdf:about="">
        <dc:format>image/svg+xml</dc:format>
        <dc:type
           rdf:resource="http://purl.org/dc/dcmitype/StillImage" />
        <dc:title></dc:title>
      </cc:Work>
    </rdf:RDF>
  </metadata>
  <g
     id="layer1"
     inkscape:groupmode="layer"
     inkscape:label="Layer 1">
    <g
       id="g83" />
    <g
       id="g122">
      <g
         transform="translate(0,-15.875)"
         id="g165" />
      <g
         id="g1062">
        <g
           inkscape:export-ydpi="39.456791"
           inkscape:export-xdpi="39.456791"
           id="g1087">
          <path
             d="m 81.031273,17.387051 a 8.7102849,9.059361 0 0 1 -8.648611,9.050038 v 18.207035 a 8.7102849,9.059361 0 0 1 8.647061,8.910295 h 49.257707 a 8.7102849,9.059361 0 0 1 8.61915,-8.909759 V 26.437089 a 8.7102849,9.059361 0 0 1 -8.6207,-9.050038 z"
             style="fill:#6c757d;fill-opacity:1;stroke-width:0.269834"
             id="rect10" />
          <rect
             y="20.767784"
             x="122.23773"
             height="5.7789526"
             width="1.9843849"
             id="rect107"
             style="fill:#ffffff;stroke-width:0.177739" />
          <rect
             style="fill:#ffffff;stroke-width:0.177739"
             id="rect109"
             width="1.9843849"
             height="5.7789526"
             x="122.23773"
             y="28.473059" />
          <rect
             y="36.178333"
             x="122.23773"
             height="5.7789526"
             width="1.9843849"
             id="rect111"
             style="fill:#ffffff;stroke-width:0.177739" />
          <rect
             style="fill:#ffffff;stroke-width:0.177739"
             id="rect113"
             width="1.9843849"
             height="5.7789526"
             x="122.23773"
             y="43.883606" />
          <g
             id="g177"
             transform="matrix(1.000005,0,0,1.0400815,5.2913297,-1.7976519)">
            <path
               id="path167"
               style="fill:#ffc107;fill-opacity:1;stroke-width:0.999999"
               d="m 306.25977,125.71484 a 32.920597,32.920597 0 0 1 -32.6875,32.88672 v 66.16211 a 32.920597,32.920597 0 0 1 32.68164,32.37891 H 492.42383 A 32.920597,32.920597 0 0 1 525,224.76562 v -66.16406 a 32.920597,32.920597 0 0 1 -32.58203,-32.88672 z"
               transform="scale(0.26458333)" />
            <rect
               style="fill:#ffffff;stroke-width:0.17428"
               id="rect169"
               width="1.9843749"
               height="5.5562496"
               x="122.23748"
               y="36.512501" />
            <rect
               y="43.920837"
               x="122.23748"
               height="5.5562496"
               width="1.9843749"
               id="rect171"
               style="fill:#ffffff;stroke-width:0.17428" />
            <rect
               style="fill:#ffffff;stroke-width:0.17428"
               id="rect173"
               width="1.9843749"
               height="5.5562496"
               x="122.23748"
               y="51.329174" />
            <rect
               y="58.737511"
               x="122.23748"
               height="5.5562496"
               width="1.9843749"
               id="rect175"
               style="fill:#ffffff;stroke-width:0.17428" />
          </g>
          <g
             transform="matrix(1.000005,0,0,1.0400815,10.583023,13.612892)"
             id="g189">
            <path
               transform="scale(0.26458333)"
               d="m 306.25977,125.71484 a 32.920597,32.920597 0 0 1 -32.6875,32.88672 v 66.16211 a 32.920597,32.920597 0 0 1 32.68164,32.37891 H 492.42383 A 32.920597,32.920597 0 0 1 525,224.76562 v -66.16406 a 32.920597,32.920597 0 0 1 -32.58203,-32.88672 z"
               style="fill:#007bff;fill-opacity:1;stroke-width:0.999999"
               id="path179" />
            <rect
               y="36.512501"
               x="122.23748"
               height="5.5562496"
               width="1.9843749"
               id="rect181"
               style="fill:#ffffff;stroke-width:0.17428" />
            <rect
               style="fill:#ffffff;stroke-width:0.17428"
               id="rect183"
               width="1.9843749"
               height="5.5562496"
               x="122.23748"
               y="43.920837" />
            <rect
               y="51.329174"
               x="122.23748"
               height="5.5562496"
               width="1.9843749"
               id="rect185"
               style="fill:#ffffff;stroke-width:0.17428" />
            <rect
               style="fill:#ffffff;stroke-width:0.17428"
               id="rect187"
               width="1.9843749"
               height="5.5562496"
               x="122.23748"
               y="58.737511" />
          </g>
          <g
             id="g201"
             transform="matrix(1.000005,0,0,1.0400815,15.874716,29.023438)">
            <path
               id="path191"
               style="fill:#dc3545;fill-opacity:1;stroke-width:0.999999"
               d="m 306.25977,125.71484 a 32.920597,32.920597 0 0 1 -32.6875,32.88672 v 66.16211 a 32.920597,32.920597 0 0 1 32.68164,32.37891 H 492.42383 A 32.920597,32.920597 0 0 1 525,224.76562 v -66.16406 a 32.920597,32.920597 0 0 1 -32.58203,-32.88672 z"
               transform="scale(0.26458333)" />
            <rect
               style="fill:#ffffff;stroke-width:0.17428"
               id="rect193"
               width="1.9843749"
               height="5.5562496"
               x="122.23748"
               y="36.512501" />
            <rect
               y="43.920837"
               x="122.23748"
               height="5.5562496"
               width="1.9843749"
               id="rect195"
               style="fill:#ffffff;stroke-width:0.17428" />
            <rect
               style="fill:#ffffff;stroke-width:0.17428"
               id="rect197"
               width="1.9843749"
               height="5.5562496"
               x="122.23748"
               y="51.329174" />
            <rect
               y="58.737511"
               x="122.23748"
               height="5.5562496"
               width="1.9843749"
               id="rect199"
               style="fill:#ffffff;stroke-width:0.17428" />
          </g>
        </g>
      </g>
    </g>
  </g>
</svg>
